<?xml version="1.0" encoding="UTF-8"?>
<svg id="_레이어_1" data-name="레이어 1" xmlns="http://www.w3.org/2000/svg" viewBox="0 0 400 400">
  <defs>
    <style>
      .cls-1 {
        fill: #231815;
      }
    </style>
  </defs>
  <path class="cls-1" d="M352,77.39h-36.68c-1.11-21.86-17.15-40.86-39.62-44.82-5.06-.89-10.06-.95-14.89-.28-10.67-12.67-27.61-19.48-45.1-16.4-5.06,.89-9.78,2.55-14.09,4.83-14.36-8.26-32.61-8.86-47.99,.02-4.45,2.57-8.32,5.74-11.59,9.35-16.32-2.85-33.67,2.82-45.09,16.43-7.56,9.01-11.23,19.97-11.23,30.87H48c-19.05,0-34.5,15.45-34.5,34.5v239.32c0,19.05,15.45,34.5,34.5,34.5H352c19.05,0,34.5-15.45,34.5-34.5V111.89c0-19.05-15.45-34.5-34.5-34.5Z"/>
</svg>